<svg xmlns="http://www.w3.org/2000/svg" viewBox="0 0 16 16" width="64" height="64">
  <rect fill="#0a0a1a" width="16" height="16"/>
  <rect x="7" y="0" width="2" height="1" fill="#4a4a6a"/>
  <rect x="7" y="1" width="2" height="1" fill="#6b21a8"/>
  <rect x="7" y="2" width="2" height="1" fill="#4a4a6a"/>
  <rect x="7" y="3" width="2" height="1" fill="#6b21a8"/>
  <rect x="7" y="4" width="2" height="1" fill="#4a4a6a"/>
  <rect x="7" y="5" width="2" height="1" fill="#6b21a8"/>
  <rect x="7" y="6" width="2" height="1" fill="#4a4a6a"/>
  <rect x="7" y="7" width="2" height="1" fill="#6b21a8"/>
  <rect x="3" y="8" width="10" height="1" fill="#9333ea"/>
  <rect x="2" y="9" width="12" height="1" fill="#6b21a8"/>
  <rect x="2" y="10" width="12" height="1" fill="#4a4a6a"/>
  <rect x="3" y="11" width="10" height="1" fill="#6b21a8"/>
  <rect x="4" y="12" width="8" height="1" fill="#9333ea"/>
  <rect x="5" y="13" width="6" height="1" fill="#6b21a8"/>
  <rect x="6" y="14" width="4" height="2" fill="#4a4a6a"/>
</svg>