<svg xmlns="http://www.w3.org/2000/svg" viewBox="0 0 16 16" width="64" height="64">
  <rect fill="#0a0a1a" width="16" height="16"/>
  <rect x="7" y="0" width="2" height="1" fill="#2d5a1a"/>
  <rect x="5" y="1" width="2" height="1" fill="#2d5a1a"/>
  <rect x="9" y="1" width="2" height="1" fill="#2d5a1a"/>
  <rect x="4" y="2" width="1" height="1" fill="#4a8a2a"/>
  <rect x="6" y="2" width="4" height="1" fill="#2d5a1a"/>
  <rect x="11" y="2" width="1" height="1" fill="#4a8a2a"/>
  <rect x="5" y="3" width="2" height="1" fill="#4a8a2a"/>
  <rect x="9" y="3" width="2" height="1" fill="#4a8a2a"/>
  <rect x="7" y="3" width="2" height="1" fill="#6b21a8"/>
  <rect x="7" y="4" width="2" height="8" fill="#4a4a6a"/>
  <rect x="6" y="5" width="1" height="6" fill="#2d2d3d"/>
  <rect x="9" y="5" width="1" height="6" fill="#2d2d3d"/>
  <rect x="5" y="12" width="6" height="1" fill="#2d5a1a"/>
  <rect x="6" y="13" width="4" height="1" fill="#4a8a2a"/>
  <rect x="7" y="14" width="2" height="2" fill="#2d5a1a"/>
</svg>