<svg xmlns="http://www.w3.org/2000/svg" viewBox="0 0 16 16" width="64" height="64">
  <rect fill="#1a1a2e" width="16" height="16"/>
  <rect x="7" y="0" width="2" height="1" fill="#6a6a7a"/>
  <rect x="7" y="1" width="2" height="1" fill="#8a8a9a"/>
  <rect x="7" y="2" width="2" height="1" fill="#6a6a7a"/>
  <rect x="7" y="3" width="2" height="1" fill="#8a8a9a"/>
  <rect x="7" y="4" width="2" height="1" fill="#6a6a7a"/>
  <rect x="7" y="5" width="2" height="1" fill="#8a8a9a"/>
  <rect x="7" y="6" width="2" height="1" fill="#6a6a7a"/>
  <rect x="7" y="7" width="2" height="1" fill="#8a8a9a"/>
  <rect x="3" y="8" width="10" height="1" fill="#5a4a3a"/>
  <rect x="2" y="9" width="12" height="1" fill="#7a6a5a"/>
  <rect x="2" y="10" width="12" height="1" fill="#6a5a4a"/>
  <rect x="3" y="11" width="10" height="1" fill="#5a4a3a"/>
  <rect x="4" y="12" width="8" height="1" fill="#7a6a5a"/>
  <rect x="5" y="13" width="6" height="1" fill="#6a5a4a"/>
  <rect x="6" y="14" width="4" height="2" fill="#5a4a3a"/>
</svg>