<svg xmlns="http://www.w3.org/2000/svg" viewBox="0 0 16 16" width="64" height="64">
  <rect fill="#0a0a0f" width="16" height="16"/>
  <rect x="10" y="0" width="2" height="1" fill="#c0c0c0"/>
  <rect x="8" y="1" width="4" height="1" fill="#a0a0a0"/>
  <rect x="7" y="2" width="4" height="1" fill="#c0c0c0"/>
  <rect x="6" y="3" width="4" height="1" fill="#a0a0a0"/>
  <rect x="5" y="4" width="4" height="1" fill="#c0c0c0"/>
  <rect x="4" y="5" width="4" height="1" fill="#a0a0a0"/>
  <rect x="3" y="6" width="4" height="1" fill="#808080"/>
  <rect x="2" y="7" width="4" height="1" fill="#a0a0a0"/>
  <rect x="1" y="8" width="4" height="1" fill="#c0c0c0"/>
  <rect x="2" y="9" width="3" height="1" fill="#a0a0a0"/>
  <rect x="3" y="10" width="2" height="1" fill="#808080"/>
  <rect x="7" y="10" width="2" height="1" fill="#4a3a2a"/>
  <rect x="7" y="11" width="2" height="1" fill="#6b4a3a"/>
  <rect x="7" y="12" width="2" height="1" fill="#4a3a2a"/>
  <rect x="7" y="13" width="2" height="1" fill="#6b4a3a"/>
  <rect x="7" y="14" width="2" height="2" fill="#4a3a2a"/>
</svg>